<?xml version="1.0" encoding="UTF-8"?>
<svg xmlns="http://www.w3.org/2000/svg" xmlns:xlink="http://www.w3.org/1999/xlink" width="16pt" height="16pt" viewBox="0 0 16 16" version="1.1">
<g id="surface1">
<path style=" stroke:none;fill-rule:nonzero;fill:rgb(59.607843%,61.568627%,63.921569%);fill-opacity:1;" d="M 8 10 C 6.300781 10 5 8.699219 5 7 L 5 3 C 5 1.398438 6.300781 0 8 0 C 9.601562 0 11 1.300781 11 3 L 11 7 C 11 8.601562 9.601562 10 8 10 Z M 8 10 "/>
<path style=" stroke:none;fill-rule:nonzero;fill:rgb(59.607843%,61.568627%,63.921569%);fill-opacity:1;" d="M 12 5 L 12 7.5 C 12 9.398438 10.199219 11 8.199219 11 L 7.800781 11 C 5.800781 11 4 9.398438 4 7.5 L 4 5 C 3.398438 5 3 5.398438 3 6 L 3 7.5 C 3 9.699219 4.800781 11.601562 7 11.898438 L 7 14 C 4 14 4.5 16 4.5 16 L 11.5 16 C 11.5 16 12 14 9 14 L 9 11.898438 C 11.199219 11.5 13 9.699219 13 7.5 L 13 6 C 13 5.398438 12.601562 5 12 5 Z M 12 5 "/>
</g>
</svg>
