<?xml version="1.0" encoding="UTF-8"?>
<svg xmlns="http://www.w3.org/2000/svg" xmlns:xlink="http://www.w3.org/1999/xlink" width="16pt" height="16pt" viewBox="0 0 16 16" version="1.1">
<g id="surface1">
<path style=" stroke:none;fill-rule:nonzero;fill:rgb(100%,100%,100%);fill-opacity:1;" d="M 1.820312 8.558594 C 1.722656 7.714844 1.804688 6.894531 2.027344 6.140625 C 2.761719 3.628906 5.070312 1.78125 7.808594 1.75 L 7.808594 0.109375 C 7.808594 0.015625 7.925781 -0.03125 8 0.0234375 L 11.375 2.503906 C 11.433594 2.546875 11.433594 2.632812 11.375 2.671875 L 8.003906 5.152344 C 7.925781 5.207031 7.8125 5.160156 7.8125 5.070312 L 7.8125 3.429688 C 6.011719 3.460938 4.476562 4.570312 3.8125 6.140625 C 3.5625 6.734375 3.4375 7.386719 3.472656 8.074219 C 3.519531 9.019531 3.875 9.890625 4.4375 10.59375 C 4.734375 10.96875 4.664062 11.515625 4.277344 11.796875 C 3.90625 12.066406 3.394531 11.992188 3.109375 11.636719 C 2.417969 10.769531 1.953125 9.714844 1.820312 8.558594 Z M 11.570312 5.40625 C 12.136719 6.109375 12.492188 6.980469 12.535156 7.925781 C 12.570312 8.617188 12.441406 9.269531 12.195312 9.859375 C 11.53125 11.429688 9.996094 12.542969 8.195312 12.570312 L 8.195312 10.929688 C 8.195312 10.839844 8.082031 10.792969 8.003906 10.847656 L 4.628906 13.328125 C 4.574219 13.371094 4.574219 13.457031 4.628906 13.496094 L 8.003906 15.976562 C 8.082031 16.03125 8.191406 15.984375 8.191406 15.890625 L 8.191406 14.25 C 10.929688 14.222656 13.242188 12.375 13.976562 9.859375 C 14.199219 9.105469 14.277344 8.285156 14.179688 7.441406 C 14.050781 6.285156 13.589844 5.230469 12.894531 4.363281 C 12.609375 4.007812 12.097656 3.933594 11.726562 4.203125 C 11.34375 4.484375 11.273438 5.03125 11.570312 5.40625 Z M 11.570312 5.40625 "/>
</g>
</svg>
